<svg xmlns="http://www.w3.org/2000/svg" version="1.1" xmlns:xlink="http://www.w3.org/1999/xlink" xmlns:svgjs="http://svgjs.com/svgjs" width="1440" height="560" preserveAspectRatio="none" viewBox="0 0 1440 560"><g mask="url(&quot;#SvgjsMask1001&quot;)" fill="none"><rect width="1440" height="560" x="0" y="0" fill="rgba(242, 68, 5, 1)"></rect><path d="M0,492.472C115.032,509.115,245.781,597.059,339.713,528.604C435.188,459.024,372.479,299.775,415.428,189.72C454.746,88.969,568.554,24.526,578.459,-83.17C589.114,-199.016,560.35,-333.842,470.362,-407.571C380.611,-481.106,242.773,-415.001,131.861,-449.077C18.729,-483.835,-60.693,-621.105,-178.179,-606.823C-294.787,-592.648,-363.221,-470.129,-438.275,-379.768C-511.879,-291.153,-583.351,-199.828,-609.43,-87.623C-636.944,30.757,-653.279,165.831,-589.065,269.017C-525.989,370.374,-393.532,396.322,-281.912,438.664C-190.615,473.296,-96.639,478.49,0,492.472" fill="#c23604"></path><path d="M1440 851.371C1499.448 845.659 1559.821 855.621 1614.394 831.3620000000001 1674.5819999999999 804.607 1727.914 763.1990000000001 1763.312 707.652 1801.902 647.097 1824.3029999999999 576.805 1822.358 505.025 1820.27 427.969 1802.753 347.668 1751.988 289.661 1701.314 231.757 1624.112 203.92899999999997 1548.145 191.692 1477.815 180.363 1404.392 190.618 1341.191 223.486 1283.951 253.25400000000002 1261.102 319.91200000000003 1214.935 364.98 1162.9859999999999 415.693 1079.211 436.558 1053.411 504.41700000000003 1026.533 575.11 1042.93 658.307 1077.9180000000001 725.357 1112.121 790.903 1172.828 842.7760000000001 1242.653 867.077 1306.2649999999999 889.2149999999999 1372.955 857.812 1440 851.371" fill="#fb642e"></path></g><defs><mask id="SvgjsMask1001"><rect width="1440" height="560" fill="#ffffff"></rect></mask></defs></svg>